<svg xmlns="http://www.w3.org/2000/svg" version="1.1" xmlns:xlink="http://www.w3.org/1999/xlink" xmlns:svgjs="http://svgjs.com/svgjs" width="1920" height="1080" preserveAspectRatio="none" viewBox="0 0 1920 1080"><g mask="url(&quot;#SvgjsMask1009&quot;)" fill="none"><rect width="1920" height="1080" x="0" y="0" fill="rgba(255, 255, 255, 1)"></rect><path d="M0 48.6C3.83 19.69 8.09 4.98 35.74 0C143.09 -19.32 152.87 0 270 0C405 0 405 0 540 0C675 0 675 0 810 0C858.21 0 859.58 -9.17 906.43 0C994.58 17.25 991.1 37.12 1080 52.83C1212.89 76.31 1229.75 97.89 1350 78.39C1392.68 71.47 1364 12.15 1405.86 0C1499 -27.04 1512.93 0 1620 0C1755 0 1755 0 1890 0C2025 0 2092.5 -67.5 2160 0C2227.5 67.5 2160 135 2160 270C2160 405 2160 405 2160 540C2160 675 2160 675 2160 810C2160 945 2227.5 1012.5 2160 1080C2092.5 1147.5 2025 1080 1890 1080C1755 1080 1755 1080 1620 1080C1485 1080 1485 1080 1350 1080C1215 1080 1215 1080 1080 1080C945 1080 945 1080 810 1080C675 1080 675 1080 540 1080C451.18 1080 424.79 1122.71 362.37 1080C289.79 1030.34 336.54 968.1 270 895.26C213.21 833.1 182.92 864.83 115.71 810C47.92 754.7 32.89 751.74 0 675C-24.97 616.74 0 607.5 0 540C0 405 0 405 0 270C0 159.3 -14.04 154.69 0 48.6" stroke="rgba(157, 157, 157, 0.15)" stroke-width="2"></path><path d="M270 191.93C222.75 191.93 189.14 214.53 170.31 270C130.07 388.56 120.13 422.38 151.87 540C169.98 607.12 214.89 639.47 270 639.47C316.91 639.47 343.43 600.46 355.91 540C381.55 415.72 376.84 393.97 346.24 270C333.88 219.93 310.72 191.93 270 191.93" stroke="rgba(157, 157, 157, 0.15)" stroke-width="2"></path><path d="M1890 117.69C1828.35 117.69 1772.2 181.18 1758 270C1738.45 392.33 1776.04 411.44 1822.5 540C1842.04 594.08 1856.71 635.29 1890 635.29C1922.86 635.29 1939.33 594.23 1954.8 540C1991.43 411.59 2013.54 395.96 1994.21 270C1981.14 184.81 1946.45 117.69 1890 117.69" stroke="rgba(157, 157, 157, 0.15)" stroke-width="2"></path><path d="M0 961.88C15.07 961.88 57.27 1038.88 57.27 1080C57.27 1097.94 9.35 1099.28 0 1080C-19.28 1040.22 -13.56 961.88 0 961.88" stroke="rgba(157, 157, 157, 0.15)" stroke-width="2"></path><path d="M0 183.6C18.54 183.6 66.46 223.5 66.46 270C66.46 334.2 17.52 405 0 405C-15.71 405 0 337.5 0 270C0 226.8 -14.69 183.6 0 183.6" stroke="rgba(157, 157, 157, 0.15)" stroke-width="2"></path><path d="M270 110.6C206.17 51.3 135 31.18 135 0C135 -24.12 202.5 0 270 0C405 0 405 0 540 0C626.79 0 657.56 -46.67 713.57 0C792.56 65.83 725.74 195.98 810 225C908.96 259.08 942.44 135.81 1080 126.2C1212.44 116.94 1239.81 221.73 1350 187.26C1441.53 158.63 1398.75 58.75 1483.45 0C1533.75 -34.88 1551.72 0 1620 0C1734.23 0 1848.46 -51.46 1848.46 0C1848.46 77.67 1737.46 133.49 1620 258.26C1610.37 268.49 1596.52 256.69 1594.29 270C1572.9 397.56 1627.06 423.37 1572.75 540C1504.92 685.66 1461.98 667.86 1350 794.57C1342.67 802.86 1334.94 799.19 1334.12 810C1324.14 941.9 1394.58 1009.68 1328.4 1080C1267.52 1144.68 1204.2 1080 1080 1080C945 1080 945 1080 810 1080C675 1080 675 1080 540 1080C495.59 1080 466.4 1113.21 451.18 1080C404.53 978.21 389.98 931.71 416.25 810C434.39 725.99 486.73 745.06 540 668.57C580.75 610.06 604.29 598.32 604.29 540C604.29 504.68 563.76 517.21 540 481.3C474.44 382.21 495.7 366.17 425.65 270C360.7 180.82 351.49 186.3 270 110.6" stroke="rgba(157, 157, 157, 0.15)" stroke-width="2"></path><path d="M2112.63 270C2112.63 212.27 2147.67 157.5 2160 157.5C2171.36 157.5 2160 213.75 2160 270C2160 354.38 2171.62 438.75 2160 438.75C2147.93 438.75 2112.63 352.89 2112.63 270" stroke="rgba(157, 157, 157, 0.15)" stroke-width="2"></path><path d="M1080 470.45C1033.33 470.45 986.33 501.78 986.33 540C986.33 583.39 1033.4 633.67 1080 633.67C1126.14 633.67 1171.8 583.45 1171.8 540C1171.8 501.84 1126.07 470.45 1080 470.45" stroke="rgba(157, 157, 157, 0.15)" stroke-width="2"></path><path d="M2035.38 810C2113.32 738.56 2125.8 630 2160 630C2188.11 630 2160 720 2160 810C2160 945 2227.5 1012.5 2160 1080C2092.5 1147.5 2025 1080 1890 1080C1755 1080 1755 1080 1620 1080C1500.43 1080 1380.86 1121.76 1380.86 1080C1380.86 1026.64 1484.91 943.5 1620 889.77C1739.48 842.25 1759.63 902.54 1890 877.5C1967.32 862.65 1978.32 862.31 2035.38 810" stroke="rgba(157, 157, 157, 0.15)" stroke-width="2"></path><path d="M270 29.28C253.65 12.98 234.26 8.25 234.26 0C234.26 -6.39 252.13 0 270 0C405 0 405 0 540 0C546.43 0 550.89 -5.91 552.86 0C595.89 129.09 634.61 150.04 630 270C628.18 317.32 577.57 334.57 540 334.57C515.1 334.57 529.24 297.34 505.06 270C394.24 144.7 389.05 147.98 270 29.28" stroke="rgba(157, 157, 157, 0.15)" stroke-width="2"></path><path d="M939.13 270C939.13 229.67 1006.95 199.57 1080 199.57C1185.38 199.57 1296 228.76 1296 270C1296 313.07 1183.52 368.18 1080 368.18C1005.08 368.18 939.13 313.97 939.13 270" stroke="rgba(157, 157, 157, 0.15)" stroke-width="2"></path><path d="M1620 111.52C1583.85 111.52 1561.03 38 1561.03 0C1561.03 -17.76 1590.51 0 1620 0C1669.32 0 1718.65 -22.22 1718.65 0C1718.65 33.54 1662.66 111.52 1620 111.52" stroke="rgba(157, 157, 157, 0.15)" stroke-width="2"></path><path d="M765 540C765 506.25 788.64 474.83 810 474.83C830.42 474.83 848.57 506.49 848.57 540C848.57 580.16 830.56 622.17 810 622.17C788.78 622.17 765 579.92 765 540" stroke="rgba(157, 157, 157, 0.15)" stroke-width="2"></path><path d="M1306.8 540C1306.8 466.54 1325.94 385.71 1350 385.71C1374.54 385.71 1404 468.08 1404 540C1404 576.08 1375.33 601.71 1350 601.71C1326.73 601.71 1306.8 574.54 1306.8 540" stroke="rgba(157, 157, 157, 0.15)" stroke-width="2"></path><path d="M997.83 810C1015.35 771.87 1040.54 771.43 1080 771.43C1109.42 771.43 1124.43 779.63 1135.59 810C1181.13 933.92 1213.1 984.3 1193.4 1080C1185.31 1119.3 1136.7 1080 1080 1080C1009.13 1080 952.17 1125.75 938.25 1080C911.09 990.75 944.47 926.15 997.83 810" stroke="rgba(157, 157, 157, 0.15)" stroke-width="2"></path><path d="M1573.71 1080C1573.71 1069.67 1591.9 1050.46 1620 1043.18C1750.05 1009.48 1757.24 1029.98 1890 998.04C2027.24 965.01 2075.05 887.45 2160 913.24C2210.05 928.43 2211.54 1048.16 2160 1080C2076.54 1131.54 2025 1080 1890 1080C1755 1080 1755 1080 1620 1080C1596.86 1080 1573.71 1088.08 1573.71 1080" stroke="rgba(157, 157, 157, 0.15)" stroke-width="2"></path></g><defs><mask id="SvgjsMask1009"><rect width="1920" height="1080" fill="#ffffff"></rect></mask></defs></svg>