<svg xmlns="http://www.w3.org/2000/svg" version="1.1" xmlns:xlink="http://www.w3.org/1999/xlink" xmlns:svgjs="http://svgjs.com/svgjs" width="1920" height="1080" preserveAspectRatio="none" viewBox="0 0 1920 1080"><g mask="url(&quot;#SvgjsMask1012&quot;)" fill="none"><rect width="1920" height="1080" x="0" y="0" fill="rgba(255, 255, 255, 1)"></rect><path d="M270 101.25C205.4 101.25 174.87 187.2 77.14 270C39.87 301.58 23.9 330 0 330C-14.67 330 0 300 0 270C0 135 -67.5 67.5 0 0C67.5 -67.5 135 0 270 0C405 0 405 0 540 0C624.92 0 670.08 -51.83 709.84 0C773.64 83.17 736.24 134.38 747.12 270C757.9 404.38 733.18 408.42 753.16 540C764.62 615.42 786.01 684 810 684C833.05 684 802.38 595.08 847.24 540C937.38 429.33 959.45 440.26 1080 352.5C1144.9 305.26 1218.14 318.27 1218.14 270C1218.14 213.83 1147.22 208.73 1080 143.62C1007.84 73.73 939.38 42.25 939.38 0C939.38 -29.56 1009.69 0 1080 0C1215 0 1215 0 1350 0C1485 0 1485 0 1620 0C1755 0 1755 0 1890 0C1945 0 1946.52 -9.95 2000 0C2081.52 15.17 2125.38 -8.2 2160 50.23C2205.38 126.8 2160 160.12 2160 270C2160 405 2160 405 2160 540C2160 675 2160 675 2160 810C2160 822.28 2163.98 823 2160 834.55C2117.43 958 2147.55 1006.68 2066.9 1080C2012.55 1129.41 1978.45 1080 1890 1080C1827.44 1080 1823.71 1095.78 1764.88 1080C1688.71 1059.56 1689.54 1007.56 1620 1007.56C1566.76 1007.56 1576.4 1064.69 1519.32 1080C1441.4 1100.91 1434.66 1080 1350 1080C1215 1080 1215 1080 1080 1080C945 1080 945 1080 810 1080C675 1080 675 1080 540 1080C405 1080 405 1080 270 1080C135 1080 67.5 1147.5 0 1080C-67.5 1012.5 0 945 0 810C0 689.76 -60.96 598.69 0 569.53C74.04 534.12 158.01 690.4 270 680.87C331.58 675.63 343.07 615.65 347.14 540C354.13 410.21 315.97 405.61 292.13 270C277.4 186.24 312.9 101.25 270 101.25" stroke="rgba(157, 157, 157, 0.2)" stroke-width="2"></path><path d="M1620 530.36C1613.18 530.36 1605 535.35 1605 540C1605 544.52 1613.1 548.71 1620 548.71C1624.82 548.71 1628.44 544.46 1628.44 540C1628.44 535.29 1624.9 530.36 1620 530.36" stroke="rgba(157, 157, 157, 0.2)" stroke-width="2"></path><path d="M1350 781.58C1337.84 781.58 1322.31 796.05 1322.31 810C1322.31 823.43 1337.75 836.34 1350 836.34C1360.03 836.34 1366.88 823.31 1366.88 810C1366.88 795.93 1360.13 781.58 1350 781.58" stroke="rgba(157, 157, 157, 0.2)" stroke-width="2"></path><path d="M402.79 270C385.15 139.28 385.51 97.39 435 0C454.11 -37.61 487.5 0 540 0C570.49 0 590.57 -24.48 600.97 0C647.9 110.52 660.95 136.47 654.66 270C648.23 406.47 573.52 405.57 575.53 540C577.56 675.57 604.15 681.84 662.73 810C721.39 938.34 731.78 1053 810 1053C892.2 1053 943.28 944.53 983.57 810C1020.09 688.03 932.55 657.19 963.62 540C980.77 475.31 1013.64 478.35 1080 446.25C1206.83 384.89 1234.69 420.22 1350 353.08C1386.05 332.09 1377.44 313.85 1382.73 270C1398.75 137.31 1328.21 73.31 1392.63 0C1446.84 -61.69 1506.32 0 1620 0C1724.51 0 1758.32 -47.14 1829.03 0C1893.32 42.86 1822.35 153.69 1890 180C1987.83 218.05 2070.84 99 2160 128.72C2205.84 144 2160 199.36 2160 270C2160 405 2160 405 2160 540C2160 589.74 2193.54 610.61 2160 639.47C2058.54 726.78 2020.99 700.16 1890 772.33C1866.24 785.42 1874.09 796.63 1850.49 810C1739.09 873.09 1729.49 925.24 1620 925.24C1540.42 925.24 1472.34 872.74 1472.34 810C1472.34 738.91 1546.17 733.79 1620 657.58C1676.95 598.79 1733.91 600.23 1733.91 540C1733.91 476.35 1686.15 409.82 1620 409.82C1527.94 409.82 1514.89 469.98 1417.5 540C1379.89 567.05 1382.76 570.97 1350 603.95C1248.63 705.97 1149.23 708.88 1149.23 810C1149.23 907.4 1255.11 900.78 1350 1000.98C1382.95 1035.78 1404.92 1054.85 1404.92 1080C1404.92 1094.36 1377.46 1080 1350 1080C1215 1080 1215 1080 1080 1080C945 1080 945 1080 810 1080C675 1080 675 1080 540 1080C405 1080 405 1080 270 1080C135 1080 67.5 1147.5 0 1080C-67.5 1012.5 0 945 0 810C0 742.5 -34.61 675 0 675C59.3 675 97.65 738.05 187.83 810C232.65 845.77 224.44 890.43 270 890.43C330.69 890.43 359.29 870.47 400.34 810C478.22 695.26 507.25 675.21 507.86 540C508.47 405.21 421.58 409.28 402.79 270" stroke="rgba(157, 157, 157, 0.2)" stroke-width="2"></path><path d="M513.44 270C513.44 223.23 527.75 174.71 540 174.71C552.12 174.71 562.19 222.98 562.19 270C562.19 301.78 552.04 332.31 540 332.31C527.67 332.31 513.44 302.03 513.44 270" stroke="rgba(157, 157, 157, 0.2)" stroke-width="2"></path><path d="M1587.27 270C1539.29 142.61 1499.26 97.24 1511.05 0C1515.63 -37.76 1565.53 0 1620 0C1670.08 0 1713.6 -36.06 1720.16 0C1738.15 98.94 1711.11 148.65 1669.09 270C1661.03 293.29 1643.78 289.29 1620 289.29C1602.87 289.29 1593.77 287.25 1587.27 270" stroke="rgba(157, 157, 157, 0.2)" stroke-width="2"></path><path d="M2017.89 270C2075.87 221.73 2109.4 207.21 2160 207.21C2180.45 207.21 2160 238.61 2160 270C2160 357.1 2193.57 373.99 2160 444.19C2129.01 508.99 2098.59 497.07 2030.87 540C1963.59 582.65 1951.05 615.35 1890 615.35C1855.31 615.35 1839.38 579.62 1839.38 540C1839.38 487.94 1857.31 481.44 1890 432C1946.57 346.44 1940.87 334.13 2017.89 270" stroke="rgba(157, 157, 157, 0.2)" stroke-width="2"></path><path d="M0 780.47C12.97 780.47 22.67 792.7 41.09 810C157.67 919.49 134.84 967.54 270 1034.04C384.29 1090.27 412.12 1034.55 540 1055.45C552.75 1057.53 551.25 1071.33 551.25 1080C551.25 1083.61 545.63 1080 540 1080C405 1080 405 1080 270 1080C135 1080 67.5 1147.5 0 1080C-67.5 1012.5 0 945 0 810C0 795.24 -7.57 780.47 0 780.47" stroke="rgba(157, 157, 157, 0.2)" stroke-width="2"></path><path d="M1577.81 810C1577.81 789.69 1596.53 766.45 1620 766.45C1650.55 766.45 1685.85 790.21 1685.85 810C1685.85 828.45 1651.28 842.93 1620 842.93C1597.26 842.93 1577.81 827.93 1577.81 810" stroke="rgba(157, 157, 157, 0.2)" stroke-width="2"></path><path d="M1048.85 1080C1048.85 1065.66 1061.73 1035 1080 1035C1102.62 1035 1130.63 1067.12 1130.63 1080C1130.63 1089.62 1105.32 1080 1080 1080C1064.43 1080 1048.85 1088.16 1048.85 1080" stroke="rgba(157, 157, 157, 0.2)" stroke-width="2"></path></g><defs><mask id="SvgjsMask1012"><rect width="1920" height="1080" fill="#ffffff"></rect></mask></defs></svg>